# xmcd CD database file
#
# Track frame offsets:
#	187
#	14435
#	30112
#	43142
#	58680
#	72395
#	84817
#	102487
#	128460
#	157122
#	177875
#
# Disc length: 2697 seconds
#
# Revision: 1
# Processed by: cddbd v1.4PL0 Copyright (c) Steve Scherf et al.
# Submitted via: CDex 1.50
#
DISCID=850a870b
DTITLE=Kazuo Yashiro - Side by Side Vol.3
DYEAR=1900
DGENRE=Jazz
TTITLE0=I know why
TTITLE1=After you´ve gone
TTITLE2=Bye bye baby
TTITLE3=Dancing on the veiling
TTITLE4=When you whis upon a star
TTITLE5=Hindustan
TTITLE6=Time on my hands
TTITLE7=Honeysuckle rose
TTITLE8=Here´s that rainy day
TTITLE9=In the wee small hours of the morning
TTITLE10=Opus de funk
EXTD=
EXTT0=
EXTT1=
EXTT2=
EXTT3=
EXTT4=
EXTT5=
EXTT6=
EXTT7=
EXTT8=
EXTT9=
EXTT10=
PLAYORDER=
